<?xml version="1.0" standalone="no"?>
<!DOCTYPE svg PUBLIC "-//W3C//DTD SVG 20010904//EN"
 "http://www.w3.org/TR/2001/REC-SVG-20010904/DTD/svg10.dtd">
<svg version="1.0" xmlns="http://www.w3.org/2000/svg"
 width="1080.000000pt" height="1080.000000pt" viewBox="0 0 1080.000000 1080.000000"
 preserveAspectRatio="xMidYMid meet">
<metadata>
Created by potrace 1.11, written by Peter Selinger 2001-2013
</metadata>
<g transform="translate(0.000000,1080.000000) scale(0.100000,-0.100000)"
fill="#000000" stroke="none">
<path d="M7625 10778 c4 -13 11 -27 16 -32 5 -6 9 -20 9 -33 0 -13 4 -31 9
-41 16 -33 39 -87 51 -122 18 -48 33 -84 64 -153 14 -32 32 -76 39 -97 6 -22
15 -40 19 -40 5 0 8 -6 8 -12 0 -24 184 -380 258 -501 23 -37 42 -70 42 -74 0
-3 11 -21 25 -39 14 -18 25 -36 25 -39 0 -4 15 -28 33 -54 17 -25 37 -53 42
-62 14 -22 41 -61 97 -142 53 -74 59 -107 32 -160 -31 -59 -34 -67 -34 -86 0
-11 -4 -22 -9 -26 -5 -3 -12 -19 -16 -35 -4 -17 -11 -30 -16 -30 -5 0 -9 -10
-9 -23 0 -13 -4 -27 -9 -33 -4 -5 -21 -45 -36 -89 -15 -44 -33 -90 -41 -102
-8 -12 -14 -29 -14 -37 0 -9 -7 -32 -16 -53 -50 -116 -52 -120 -95 -243 -6
-19 -15 -43 -20 -52 -14 -29 -16 -195 -1 -210 6 -6 12 -21 12 -32 0 -11 17
-47 37 -81 39 -66 155 -165 192 -165 11 0 22 -4 25 -9 4 -7 104 -23 141 -23
31 1 113 13 130 20 45 19 141 66 155 77 8 6 33 17 55 24 22 8 52 22 66 32 14
10 45 25 70 35 24 9 51 22 59 29 8 6 38 22 65 34 28 12 57 26 65 31 33 21 219
110 230 110 12 0 85 -52 105 -75 6 -6 53 -41 105 -78 52 -37 100 -70 105 -75
22 -17 197 -132 202 -132 2 0 23 -13 46 -29 72 -49 194 -121 206 -121 6 0 11
-4 11 -8 0 -4 12 -13 28 -19 15 -6 41 -19 57 -29 47 -27 56 -32 125 -65 36
-17 106 -51 156 -75 50 -24 93 -44 97 -44 8 0 110 -46 150 -66 l27 -15 0 328
0 328 -138 68 c-75 37 -162 81 -192 98 -30 17 -75 42 -100 56 -25 14 -52 31
-61 39 -8 8 -19 14 -23 14 -7 0 -235 149 -246 160 -3 3 -36 28 -75 54 -87 61
-179 135 -315 251 -119 102 -142 115 -208 115 -41 0 -85 -19 -317 -135 -149
-74 -273 -135 -277 -135 -18 0 -7 46 32 135 4 11 41 106 80 210 40 105 80 206
89 225 10 22 16 62 16 106 0 68 -1 72 -45 129 -25 32 -85 113 -133 179 -48 67
-93 128 -101 137 -7 8 -21 31 -32 50 -10 19 -22 36 -25 39 -3 3 -23 34 -44 70
-22 36 -44 72 -51 80 -6 8 -24 40 -40 70 -16 30 -31 57 -34 60 -7 7 -84 156
-150 290 -17 35 -105 236 -120 275 -4 11 -15 37 -23 58 l-17 37 -316 0 -315 0
6 -22z m702 -2240 c-3 -8 -6 -5 -6 6 -1 11 2 17 5 13 3 -3 4 -12 1 -19z m948
-136 c-3 -3 -11 0 -18 7 -9 10 -8 11 6 5 10 -3 15 -9 12 -12z m-165 -72 c0 -5
-5 -10 -11 -10 -5 0 -7 5 -4 10 3 6 8 10 11 10 2 0 4 -4 4 -10z m-310 -160 c0
-5 -9 -10 -20 -10 -11 0 -20 5 -20 10 0 6 9 10 20 10 11 0 20 -4 20 -10z
m-160 -70 c0 -5 -5 -10 -11 -10 -5 0 -7 5 -4 10 3 6 8 10 11 10 2 0 4 -4 4
-10z"/>
<path d="M5155 10153 c-40 -5 -127 -33 -139 -44 -6 -5 -20 -9 -32 -9 -12 0
-26 -6 -33 -13 -6 -8 -37 -26 -68 -42 -32 -16 -67 -36 -78 -45 -11 -10 -36
-26 -55 -36 -19 -10 -46 -29 -60 -41 -13 -13 -29 -23 -35 -23 -30 -1 -209
-166 -241 -222 -5 -9 -29 -38 -54 -64 -45 -48 -45 -49 -45 -119 0 -52 6 -80
21 -110 12 -22 31 -62 44 -89 12 -26 36 -64 53 -83 39 -44 30 -53 -70 -69
-122 -20 -169 -32 -215 -54 -23 -11 -49 -20 -58 -20 -9 0 -20 -4 -25 -9 -6 -5
-57 -34 -115 -64 -58 -29 -114 -59 -125 -64 -11 -6 -36 -18 -55 -27 -19 -9
-42 -20 -50 -24 -40 -23 -61 -32 -75 -32 -8 0 -15 -4 -15 -10 0 -5 -10 -10
-23 -10 -13 0 -32 -7 -43 -15 -10 -8 -27 -15 -37 -15 -10 0 -33 -11 -51 -25
-18 -14 -41 -25 -50 -25 -9 0 -30 -7 -47 -15 -16 -9 -33 -14 -38 -11 -4 3 -21
1 -37 -4 -109 -32 393 17 518 51 58 16 73 5 33 -24 -17 -12 -57 -47 -90 -79
-33 -31 -69 -65 -80 -75 -32 -29 -121 -136 -127 -154 -3 -8 -35 -50 -69 -93
-64 -78 -95 -124 -125 -183 -9 -18 -22 -37 -30 -44 -8 -6 -14 -20 -14 -29 0
-10 -11 -31 -23 -47 -24 -28 -107 -194 -107 -213 0 -10 -5 -22 -28 -67 -7 -13
-12 -28 -12 -35 0 -7 -11 -35 -25 -62 -14 -27 -25 -57 -25 -67 0 -17 -18 -66
-41 -111 -5 -10 -9 -26 -9 -36 0 -9 -6 -26 -13 -37 -7 -11 -19 -40 -26 -65 -7
-25 -19 -63 -27 -85 -8 -23 -14 -52 -14 -66 0 -14 -4 -29 -8 -34 -13 -16 -31
-76 -43 -150 -6 -38 -16 -90 -21 -115 -4 -25 -13 -90 -18 -145 -6 -55 -14
-111 -19 -125 -10 -27 -36 -288 -46 -449 -2 -25 -6 -77 -10 -116 -4 -39 -2
-81 3 -95 9 -23 10 -22 17 19 9 56 27 97 60 141 15 19 33 49 40 65 8 17 26 48
39 70 14 22 33 56 42 75 19 39 43 70 55 70 4 0 9 -51 12 -112 6 -170 25 -283
57 -348 4 -9 11 -31 15 -50 10 -53 28 -100 37 -100 4 0 8 -6 8 -14 0 -8 11
-28 25 -43 l24 -28 1 53 c0 69 15 65 55 -14 54 -107 104 -180 160 -235 l55
-53 0 -72 c0 -41 -6 -87 -15 -107 -8 -19 -22 -89 -31 -154 -8 -65 -18 -133
-21 -150 -6 -39 8 -43 27 -8 7 13 21 27 31 30 10 3 49 40 88 81 38 40 74 74
80 74 24 0 11 -76 -25 -147 -55 -107 -31 -131 59 -60 32 26 41 29 65 21 16 -5
28 -18 30 -31 2 -11 15 -31 30 -45 34 -30 139 -108 146 -108 3 0 30 -16 60
-35 30 -19 62 -35 70 -35 8 0 16 -3 18 -7 5 -11 64 -43 80 -43 7 0 35 -11 62
-25 27 -14 57 -25 67 -25 10 0 21 -4 24 -10 3 -5 19 -10 34 -10 15 0 31 -4 37
-9 18 -17 251 -45 374 -46 135 0 205 13 359 66 84 29 145 39 109 19 -9 -6 -20
-25 -23 -43 -4 -17 -15 -41 -24 -52 -9 -11 -25 -36 -35 -55 -10 -19 -29 -46
-41 -60 -30 -32 -115 -165 -115 -179 0 -5 -6 -16 -12 -23 -29 -30 -137 -244
-187 -368 -55 -139 -81 -180 -116 -180 -36 0 -55 -30 -55 -89 0 -29 -6 -58
-12 -65 -7 -7 -62 -23 -122 -35 -122 -26 -131 -23 -120 39 20 111 26 152 30
215 3 39 9 79 14 90 10 22 28 118 41 210 4 33 13 86 19 118 9 45 10 65 1 84
-10 21 -8 32 9 65 21 41 19 97 -4 79 -13 -10 -76 -2 -76 10 0 5 -11 9 -24 9
-14 0 -28 5 -31 10 -3 6 -32 10 -63 10 -41 0 -53 -3 -42 -10 8 -5 25 -10 38
-10 12 0 25 -6 28 -14 3 -8 17 -16 32 -20 47 -10 59 -22 44 -46 -6 -11 -12
-46 -11 -79 1 -40 -4 -66 -15 -82 -10 -15 -16 -44 -16 -84 0 -43 -6 -68 -20
-90 -21 -32 -27 -80 -10 -90 18 -11 10 -39 -16 -64 -22 -21 -25 -31 -21 -70 2
-27 -2 -65 -12 -93 -13 -39 -13 -53 -3 -80 6 -17 8 -34 4 -37 -4 -4 -16 -23
-27 -43 -16 -31 -18 -44 -9 -77 9 -33 8 -42 -9 -65 -14 -19 -18 -39 -15 -70 1
-25 1 -43 -1 -40 -2 2 -9 -3 -15 -12 -10 -13 -28 -15 -119 -8 -58 3 -105 10
-103 13 3 4 -5 7 -17 7 -55 1 -101 6 -89 11 6 2 12 9 12 15 0 5 7 16 15 24 13
13 13 19 0 51 -19 46 -19 58 3 79 13 14 16 32 15 78 -2 34 2 65 9 73 6 8 12
38 12 66 1 29 5 58 10 66 5 8 9 44 8 80 0 36 3 70 8 76 12 15 24 76 21 110 -1
17 6 48 16 70 11 25 18 65 18 107 0 40 5 72 13 80 6 6 12 34 12 61 0 27 5 67
12 89 l11 39 81 -3 c96 -4 116 15 24 22 -40 3 -63 10 -66 19 -4 11 9 13 74 7
106 -8 145 15 48 29 -82 11 -261 28 -309 29 -61 1 -75 -7 -75 -48 -1 -17 -8
-58 -16 -91 -9 -33 -19 -78 -22 -100 -5 -25 -13 -41 -22 -41 -8 -1 -22 -2 -29
-3 -10 -1 -4 -12 17 -34 18 -18 32 -38 32 -44 0 -7 9 -15 20 -18 12 -4 20 -15
20 -28 -1 -51 -59 -85 -105 -61 -15 8 -47 14 -72 14 -41 0 -45 2 -58 35 -12
28 -14 103 -3 109 2 1 14 7 28 13 l25 12 -26 0 c-42 1 -49 -16 -49 -115 0 -51
-4 -96 -10 -99 -6 -3 -10 -14 -10 -23 1 -15 2 -16 13 -1 18 24 72 49 106 49
23 0 45 -14 95 -61 36 -33 72 -75 81 -92 14 -28 14 -33 -2 -56 -28 -44 -43
-50 -113 -45 -62 5 -140 31 -140 47 0 4 -4 7 -10 7 -5 0 -10 -11 -10 -25 0
-14 -4 -25 -10 -25 -5 0 -10 -4 -10 -8 0 -5 21 -9 48 -10 102 -4 227 -25 240
-41 16 -20 15 -56 -4 -93 l-16 -30 -91 6 c-92 6 -92 6 -52 -10 22 -9 56 -19
75 -23 34 -6 35 -8 38 -54 4 -61 -25 -113 -69 -122 -43 -10 -120 3 -149 25
-23 17 -24 21 -14 59 10 35 8 45 -10 73 -11 18 -26 51 -32 73 l-12 40 -1 -38
c-1 -36 14 -75 34 -89 6 -4 5 -19 -3 -41 -29 -80 -14 -115 76 -176 24 -17 32
-30 32 -52 0 -22 11 -41 40 -69 l40 -39 0 -80 c0 -44 5 -83 10 -86 6 -3 10
-15 10 -25 0 -22 30 -90 40 -90 4 0 13 -19 20 -42 8 -24 36 -69 63 -101 l49
-57 -6 -353 c-4 -193 -7 -375 -6 -403 2 -80 -53 -219 -101 -254 -16 -12 -49
-77 -49 -98 0 -13 13 -63 30 -112 26 -76 28 -93 19 -121 -7 -19 -18 -39 -26
-46 -17 -13 -18 -29 -8 -108 6 -50 4 -63 -9 -74 -9 -7 -16 -25 -16 -40 0 -39
-34 -87 -66 -95 -16 -4 -35 -12 -41 -18 -19 -15 -16 -46 6 -57 10 -6 38 -33
62 -62 l42 -51 -31 -29 c-17 -16 -35 -29 -40 -29 -5 0 -22 -11 -38 -25 -16
-14 -47 -34 -69 -44 -38 -19 -51 -27 -116 -79 -38 -31 -41 -83 -5 -99 57 -27
207 -36 361 -23 186 16 209 16 370 0 72 -7 236 -14 365 -15 129 -1 289 -8 355
-14 167 -16 221 -16 248 2 26 17 67 113 67 158 0 42 23 49 162 49 68 1 159 7
203 16 152 28 269 44 285 39 8 -3 65 -9 125 -15 61 -5 133 -14 160 -19 28 -5
133 -17 235 -26 236 -22 378 -16 560 25 25 6 61 13 80 16 19 4 58 17 86 30 28
13 55 24 61 24 5 0 28 12 49 28 81 57 100 61 224 51 63 -5 117 -14 120 -20 4
-6 30 -9 61 -7 l54 3 -3 41 c-4 46 9 62 28 39 7 -8 16 -15 21 -15 4 0 20 -11
35 -25 32 -30 45 -31 68 -6 15 16 15 22 5 39 -7 12 -23 26 -35 32 -12 7 -28
23 -35 36 -7 13 -16 24 -20 24 -4 0 -33 30 -64 67 -53 61 -57 69 -51 104 3 20
9 44 12 52 3 8 -8 30 -26 50 -37 43 -47 90 -61 302 -5 83 -14 186 -19 230 -5
44 -13 119 -19 167 -5 48 -12 92 -16 98 -6 10 -25 111 -70 370 -14 84 -16 90
-110 375 -37 110 -80 254 -97 320 -42 168 -57 220 -83 300 -12 39 -28 97 -35
130 -7 33 -17 65 -21 70 -4 6 -12 29 -17 50 -14 58 -41 133 -68 190 -14 28
-24 54 -24 58 0 14 -187 393 -202 408 -7 8 -19 25 -25 39 -54 111 -220 308
-291 344 -51 26 -176 130 -162 134 7 3 15 1 19 -4 11 -16 58 -36 75 -32 16 3
15 5 -3 25 -20 21 -29 53 -15 53 3 0 28 -18 54 -40 67 -56 78 -52 38 17 -24
39 -25 43 -77 183 -17 47 -35 94 -40 105 -5 11 -12 34 -15 50 -3 17 -8 42 -12
58 -10 44 11 32 58 -30 23 -32 47 -63 53 -69 5 -6 26 -33 45 -61 34 -49 95
-101 106 -91 5 5 -29 217 -40 248 -3 8 -7 56 -10 106 l-5 90 82 39 c45 21 103
54 129 73 l47 33 71 -22 c38 -13 70 -27 70 -31 0 -4 11 -8 25 -8 13 0 42 -6
62 -14 21 -8 57 -17 81 -20 39 -6 42 -5 33 11 -5 10 -31 40 -56 66 -65 67 -56
83 31 51 37 -13 84 -24 106 -24 21 0 46 -4 56 -9 9 -5 45 -14 80 -20 35 -7 70
-15 79 -18 13 -5 10 6 -12 43 -15 27 -34 61 -42 76 -8 15 -18 30 -24 33 -5 4
-9 15 -9 26 0 10 -4 19 -10 19 -5 0 -10 4 -10 10 0 5 -14 32 -30 59 -33 53
-61 133 -90 251 -4 19 -20 66 -34 104 -17 45 -23 73 -17 79 10 10 104 10 201
0 30 -3 143 -8 250 -10 114 -3 200 -9 207 -15 22 -18 15 8 -18 69 -17 32 -35
63 -39 68 -4 6 -34 60 -65 120 -106 202 -130 254 -122 262 4 3 64 -12 133 -35
175 -57 180 -52 64 69 -44 46 -106 119 -138 162 -31 44 -62 85 -69 92 -7 7
-24 35 -39 61 -39 70 -42 75 -57 114 -8 19 -26 64 -41 100 -14 36 -26 71 -26
78 0 8 -11 47 -25 88 -14 41 -25 82 -25 92 0 10 -4 22 -8 28 -5 5 -16 36 -26
69 -9 33 -24 80 -33 105 -9 25 -18 60 -21 79 l-4 33 58 -5 c33 -4 79 -9 104
-12 31 -5 56 -2 80 9 32 14 33 15 10 16 -14 0 -34 7 -44 15 -11 8 -28 15 -38
15 -10 0 -18 4 -18 9 0 4 -29 23 -65 41 -36 18 -65 36 -65 40 0 4 -12 13 -27
20 -39 20 -64 42 -73 65 -4 11 -31 51 -59 88 -28 37 -60 87 -70 111 -11 23
-27 49 -36 56 -9 7 -32 41 -51 76 -42 74 -91 132 -234 273 -211 208 -401 371
-434 371 -8 0 -18 5 -21 10 -4 6 -41 27 -83 46 -42 20 -97 45 -121 56 -24 12
-97 31 -162 44 -66 13 -127 27 -137 33 -9 5 -56 14 -102 20 -47 6 -114 16
-150 22 -72 12 -283 7 -425 -10 -49 -6 -130 -25 -178 -41 -49 -17 -96 -30
-105 -30 -10 0 -30 -7 -47 -16 -19 -10 -64 -17 -127 -19 -88 -3 -98 -2 -103
15 -6 20 1 82 14 115 23 57 57 125 83 162 15 23 28 44 28 48 0 3 11 21 25 39
14 18 25 36 25 40 0 4 18 31 40 61 22 30 40 57 40 60 0 3 4 11 10 18 5 7 33
41 62 77 43 53 137 149 212 215 29 26 86 65 94 65 5 0 16 7 23 16 11 13 27 15
84 12 39 -3 80 -1 90 3 13 5 0 8 -37 8 -31 1 -60 6 -63 11 -6 10 -69 11 -130
3z m780 -1013 c3 -5 1 -10 -4 -10 -6 0 -11 5 -11 10 0 6 2 10 4 10 3 0 8 -4
11 -10z m245 -90 c0 -5 -2 -10 -4 -10 -3 0 -8 5 -11 10 -3 6 -1 10 4 10 6 0
11 -4 11 -10z m-1460 -80 c0 -5 -2 -10 -4 -10 -3 0 -8 5 -11 10 -3 6 -1 10 4
10 6 0 11 -4 11 -10z m2000 -301 c30 -32 60 -64 65 -72 6 -8 28 -39 51 -68 22
-30 49 -66 58 -81 17 -27 17 -28 0 -35 -9 -3 -51 -2 -93 4 -72 11 -78 10 -126
-14 -27 -14 -54 -32 -58 -39 -4 -8 -15 -14 -24 -14 -18 0 -53 28 -53 43 0 5
-13 26 -29 46 -31 39 -29 70 4 57 26 -9 45 12 45 49 0 28 5 35 31 44 l31 11
-21 33 c-26 43 -26 48 2 90 26 41 26 41 117 -54z m-2333 29 c-3 -8 -6 -5 -6 6
-1 11 2 17 5 13 3 -3 4 -12 1 -19z m10 -40 c-3 -8 -6 -5 -6 6 -1 11 2 17 5 13
3 -3 4 -12 1 -19z m-687 -126 c0 -10 -5 -23 -12 -30 -7 -7 -10 -12 -7 -13 2 0
17 -2 33 -4 15 -2 31 -7 34 -10 10 -10 6 -87 -5 -94 -13 -9 -24 -41 -14 -41 5
0 14 7 21 16 8 9 25 14 44 12 40 -4 47 -40 15 -74 -12 -13 -19 -27 -15 -31 4
-5 13 0 20 10 16 21 55 22 63 2 3 -9 -2 -24 -11 -34 -9 -10 -16 -25 -16 -34 0
-23 -55 -77 -78 -77 -28 0 -45 25 -40 59 l4 30 -25 -19 c-14 -10 -36 -28 -49
-40 -27 -25 -42 -19 -42 18 0 26 0 26 -31 -11 -20 -24 -39 -37 -55 -37 -20 0
-25 6 -30 40 -4 22 -10 40 -15 40 -5 0 -31 -23 -59 -52 -27 -28 -52 -49 -55
-46 -8 8 13 58 25 58 5 0 10 7 10 15 0 9 11 28 25 43 14 15 25 32 25 39 0 6 3
13 8 15 4 2 25 26 46 53 22 28 44 55 50 60 6 6 29 35 51 65 67 91 85 107 85
72z m2422 -199 c10 -9 18 -21 18 -26 0 -17 -32 -47 -50 -47 -32 0 -42 62 -12
79 23 14 23 14 44 -6z m-108 -89 c23 -9 20 -34 -4 -34 -13 0 -20 7 -20 20 0
22 1 23 24 14z m-1185 -46 c7 -18 8 -19 14 -4 5 13 11 15 26 6 17 -8 19 -18
16 -60 -5 -63 -9 -70 -45 -70 -23 0 -31 5 -36 25 -3 14 -18 31 -32 38 -33 15
-39 42 -16 68 23 26 63 25 73 -3z m-105 -3 c3 -9 -1 -35 -9 -58 -8 -23 -15
-49 -15 -58 0 -29 -25 -52 -48 -45 -17 6 -22 15 -22 42 0 75 74 169 94 119z
m336 -127 c0 -4 11 -31 25 -60 14 -28 25 -60 25 -69 0 -10 4 -20 9 -24 5 -3
17 -29 27 -58 9 -28 23 -59 30 -68 8 -8 14 -20 14 -26 0 -6 18 -44 40 -84 23
-41 46 -85 52 -99 6 -14 21 -48 34 -76 13 -28 24 -54 24 -58 0 -5 15 -40 34
-79 65 -137 103 -222 131 -292 15 -38 31 -79 35 -90 5 -11 16 -45 25 -75 10
-30 21 -63 26 -72 5 -10 9 -28 9 -41 0 -13 11 -46 25 -73 14 -27 25 -66 25
-86 0 -20 3 -45 7 -55 13 -31 19 44 10 127 -4 41 -11 127 -16 190 -8 110 -41
311 -61 376 -6 17 -10 41 -10 54 0 13 -4 37 -9 54 -18 60 -38 144 -56 231 -6
27 -5 28 6 10 7 -11 15 -22 18 -25 3 -3 13 -19 22 -35 18 -34 38 -73 50 -95 5
-8 16 -31 25 -50 9 -19 55 -114 102 -210 46 -96 95 -200 109 -230 28 -61 33
-72 55 -115 20 -39 33 -68 57 -131 11 -28 28 -71 39 -95 11 -24 32 -75 47
-114 15 -38 31 -79 35 -90 5 -11 16 -42 25 -70 9 -27 21 -58 26 -67 5 -10 9
-25 9 -34 0 -18 44 -136 66 -176 8 -14 14 -36 14 -49 0 -21 1 -22 20 -4 11 10
20 22 20 28 0 5 6 23 14 40 8 18 27 73 42 124 31 98 44 102 44 11 0 -31 4 -59
8 -62 27 -17 63 63 89 199 4 17 30 54 64 90 33 33 66 70 74 82 22 32 142 86
190 86 85 1 156 -62 222 -194 51 -104 63 -155 63 -267 0 -90 -2 -96 -69 -257
-16 -38 -38 -80 -82 -155 -59 -100 -210 -212 -347 -259 -51 -17 -119 -34 -151
-37 -56 -6 -59 -5 -79 23 -18 25 -20 39 -16 84 l6 54 -21 -33 c-12 -18 -21
-46 -21 -62 0 -19 -25 -70 -70 -143 -54 -88 -91 -134 -159 -198 -110 -105
-199 -179 -216 -179 -6 0 -20 -9 -29 -19 -17 -18 -17 -20 3 -40 30 -30 29 -94
-4 -126 -13 -14 -27 -25 -31 -25 -4 0 -17 -9 -29 -20 -12 -11 -46 -33 -76 -48
-30 -15 -63 -33 -74 -40 -23 -13 -111 -52 -119 -52 -13 0 -76 69 -76 84 0 26
-8 24 -108 -27 -28 -15 -59 -27 -67 -27 -8 0 -23 -4 -33 -9 -9 -5 -45 -18 -79
-27 -35 -10 -63 -21 -63 -25 0 -3 -37 -13 -82 -20 -115 -18 -373 -16 -468 4
-122 26 -206 52 -224 68 -6 5 -23 9 -38 9 -15 0 -28 4 -28 8 0 11 -66 42 -90
42 -11 0 -20 3 -20 8 0 4 -17 16 -37 27 -21 11 -40 22 -43 25 -3 3 -22 14 -43
25 -43 22 -185 157 -204 194 -7 13 -13 32 -13 42 0 10 -4 20 -9 23 -10 7 -28
124 -36 229 -5 77 -29 172 -46 183 -5 3 -9 14 -9 25 0 10 -4 19 -9 19 -9 0
-12 10 -30 110 -6 30 -16 68 -22 85 -16 44 -60 157 -69 180 -5 11 -17 45 -28
75 -29 79 -67 158 -87 180 -15 16 -17 32 -12 107 3 48 11 113 18 143 6 30 16
87 23 125 11 65 13 68 19 35 21 -105 28 -130 46 -161 12 -19 25 -44 31 -56 15
-35 26 -28 39 25 7 26 17 55 23 66 6 12 6 22 -1 29 -14 14 -14 63 -2 119 6 24
15 77 20 118 6 41 15 95 21 120 5 25 17 79 25 120 8 41 20 93 26 115 6 22 15
67 21 100 5 33 14 64 19 70 5 5 9 19 9 31 0 13 5 26 10 29 6 3 10 21 10 39 0
19 7 47 15 62 8 16 15 39 15 51 0 12 5 25 10 28 6 3 10 13 10 22 0 14 34 110
60 168 25 55 62 153 67 173 3 12 9 22 13 22 5 0 11 10 14 23 2 12 3 4 0 -18
-12 -105 -15 -523 -4 -580 7 -33 15 -100 20 -150 4 -49 15 -135 25 -190 9 -55
21 -127 25 -160 5 -33 12 -72 15 -87 l7 -28 -83 0 c-155 0 -175 -22 -34 -37
98 -10 135 -28 135 -62 0 -9 6 -28 14 -42 21 -41 27 -78 16 -98 -8 -16 -2 -27
35 -63 25 -24 45 -51 45 -60 0 -22 4 -21 -73 -4 -82 19 -225 38 -235 32 -5 -3
-42 -10 -83 -16 -41 -5 -101 -16 -134 -24 -48 -12 -56 -16 -37 -21 29 -10 28
-21 -3 -29 -16 -4 -25 -13 -25 -25 0 -11 -5 -21 -12 -23 -6 -2 -8 -10 -4 -16
5 -8 46 -12 132 -12 111 0 124 -2 124 -17 0 -10 7 -27 15 -37 8 -11 15 -30 15
-42 0 -13 5 -26 10 -29 6 -3 10 -16 10 -29 0 -12 12 -33 26 -47 25 -23 26 -23
40 -5 13 19 10 60 -7 81 -11 15 -9 114 2 121 11 7 209 -12 287 -27 30 -6 56
-8 59 -5 3 3 -2 17 -11 30 -20 31 -20 36 -1 36 27 0 16 20 -30 52 -25 18 -45
36 -45 40 0 18 29 78 38 78 5 0 9 17 9 39 0 25 9 52 27 77 14 21 26 50 26 65
0 14 3 29 7 33 12 12 43 100 43 121 0 12 4 25 9 30 5 6 28 69 51 140 23 72 45
139 50 150 4 11 16 47 26 80 10 33 22 64 26 70 4 5 8 17 8 27 0 10 11 41 25
70 14 28 25 61 25 72 1 12 9 37 20 56 l19 35 1 -150 c0 -82 5 -231 10 -330 6
-118 5 -184 -1 -191 -7 -9 -5 -22 5 -43 9 -17 17 -58 17 -93 1 -57 15 -142 18
-110 0 7 8 20 16 28 8 9 15 32 15 52 0 61 7 65 106 63 82 -2 121 4 262 41 59
15 48 33 -19 32 -214 -5 -301 -4 -310 2 -7 4 -9 23 -4 53 3 25 10 73 15 106
16 120 29 191 39 225 6 19 11 50 11 68 0 18 6 58 14 90 30 122 36 154 36 197
0 24 5 47 10 50 6 3 10 21 10 38 0 18 5 48 11 67 10 32 18 83 34 210 4 25 10
54 15 65 5 11 11 47 14 79 3 32 10 64 15 69 6 6 11 24 11 39 0 16 7 45 15 66
l16 37 29 -54 c17 -30 30 -58 30 -63z m-1150 82 c0 -24 -26 -38 -42 -22 -16
16 -2 42 22 42 13 0 20 -7 20 -20z m-600 -2070 c0 -23 53 -119 69 -125 7 -3
19 -1 26 5 9 7 26 -19 69 -103 31 -61 61 -119 66 -127 14 -22 77 -161 85 -187
3 -13 11 -23 16 -23 5 0 9 -13 9 -29 0 -17 5 -33 10 -36 17 -11 11 -25 -11
-25 -31 0 -180 101 -215 146 -32 41 -90 138 -113 189 -7 17 -17 37 -21 45 -26
54 -42 139 -36 198 8 80 23 122 36 102 6 -8 10 -22 10 -30z m2767 -1078 c21
-21 54 -56 75 -79 l36 -42 -20 -73 c-30 -113 -31 -118 -19 -118 15 0 14 -58
-5 -165 -8 -49 -20 -121 -25 -160 -13 -90 -26 -124 -53 -130 -137 -28 -210
-33 -221 -14 -4 6 -13 8 -21 5 -8 -3 -14 1 -14 8 0 8 12 16 28 19 56 11 138
34 158 45 16 8 26 31 39 84 10 40 21 77 26 82 5 6 9 18 9 28 0 10 5 18 10 18
6 0 10 14 10 30 0 17 4 30 8 30 5 0 19 21 31 46 17 33 20 49 12 57 -6 6 -12 9
-13 6 -16 -24 -38 -73 -38 -81 0 -17 -81 -176 -96 -189 -8 -6 -24 -29 -36 -50
-12 -21 -30 -41 -40 -45 -22 -7 -76 30 -88 61 -5 14 -20 24 -39 28 -24 5 -117
47 -191 86 -8 4 -32 16 -52 26 -20 10 -46 26 -57 36 -24 23 -41 24 -41 4 0
-15 38 -55 52 -55 4 0 12 -8 17 -19 14 -25 -15 -101 -39 -101 -26 0 -51 76
-48 148 2 60 2 61 36 67 31 6 115 47 137 66 5 5 16 9 24 9 8 0 29 11 47 25 18
14 36 25 40 25 29 0 284 220 284 246 0 30 -25 25 -53 -9 -34 -43 -47 -40 -47
11 0 45 33 70 97 71 37 1 48 -4 80 -37z m230 -148 c-3 -3 -12 -4 -19 -1 -8 3
-5 6 6 6 11 1 17 -2 13 -5z m-947 -168 c0 -3 -4 -8 -10 -11 -5 -3 -10 -1 -10
4 0 6 5 11 10 11 6 0 10 -2 10 -4z m-40 -26 c0 -5 -9 -10 -20 -10 -11 0 -20 5
-20 10 0 6 9 10 20 10 11 0 20 -4 20 -10z m71 -50 c-8 -23 -6 -46 9 -102 10
-40 23 -74 28 -76 6 -2 8 -12 5 -23 -8 -29 -23 -19 -65 42 -55 79 -78 106 -78
91 0 -7 5 -22 11 -33 8 -15 7 -24 -2 -35 -7 -9 -13 -48 -14 -93 -3 -104 -9
-121 -46 -121 -16 0 -29 2 -29 4 0 3 11 56 25 120 14 64 25 135 25 159 0 45
11 60 65 87 71 34 84 30 66 -20z m-1304 -126 c-3 -3 -12 -4 -19 -1 -8 3 -5 6
6 6 11 1 17 -2 13 -5z m1118 -66 c-3 -18 -9 -55 -12 -82 -3 -28 -16 -67 -29
-88 -13 -21 -24 -43 -24 -49 0 -22 -34 -89 -44 -89 -6 0 -20 7 -30 15 -16 12
-18 19 -9 37 53 115 107 226 114 238 5 8 12 23 15 33 11 31 27 19 19 -15z
m-1245 -12 c0 -8 -4 -18 -10 -21 -13 -8 -13 -41 1 -63 9 -15 6 -26 -15 -60
-16 -26 -26 -56 -26 -79 l0 -38 -23 35 c-22 33 -23 39 -13 123 5 48 13 87 18
87 4 0 8 7 8 15 0 10 10 15 30 15 19 0 30 -5 30 -14z m60 -37 c-10 -24 -10
-35 0 -53 10 -19 9 -29 -3 -52 -15 -28 -16 -27 -16 45 0 40 6 82 12 92 17 27
21 4 7 -32z m1740 12 l24 -19 -17 -94 c-17 -91 -50 -319 -68 -468 -5 -41 -7
-103 -3 -137 7 -79 0 -107 -26 -93 -18 10 -23 29 -39 150 -5 36 -14 89 -20
119 -16 76 -14 232 2 256 8 11 21 47 31 80 10 33 22 70 27 83 5 13 9 50 9 82
0 59 1 60 28 60 15 0 38 -9 52 -19z m-222 -57 c12 -2 22 -11 22 -19 0 -27 -77
-190 -98 -207 -18 -16 -60 6 -72 37 -5 13 -19 44 -30 67 -11 23 -20 59 -20 79
0 31 4 38 23 41 32 6 148 7 175 2z m-1067 -100 l-9 -49 -1 65 c0 44 3 60 9 49
5 -9 5 -36 1 -65z m-486 -63 c0 -33 -3 -62 -6 -65 -8 -8 -18 94 -12 111 11 28
18 10 18 -46z m2767 14 c15 -15 -75 -280 -91 -270 -14 8 23 231 43 263 7 12
38 16 48 7z m-1382 -72 c8 -15 22 -40 32 -55 17 -25 17 -31 3 -100 -9 -40 -20
-100 -25 -133 -24 -160 -36 -193 -62 -166 -15 14 -18 371 -5 454 7 40 11 46
26 38 9 -5 23 -22 31 -38z m-926 15 c-1 -13 -3 -29 -3 -35 -1 -7 -5 -13 -11
-13 -14 0 -13 43 2 58 15 15 15 16 12 -10z m1447 -9 c15 -10 38 -23 53 -29 27
-10 36 -43 15 -56 -20 -12 -115 18 -147 46 -18 15 -32 37 -32 49 0 19 4 21 43
15 23 -4 54 -15 68 -25z m-1935 -106 c1 -68 0 -72 -7 -33 -6 36 -3 110 5 110
1 0 2 -35 2 -77z m1309 34 c22 -17 14 -64 -13 -74 -9 -4 -32 -19 -51 -35 -18
-16 -44 -34 -57 -40 -35 -16 -37 -37 -10 -110 13 -36 27 -90 30 -121 6 -46 5
-55 -10 -61 -23 -9 -40 10 -75 84 -6 14 -22 46 -34 71 -13 26 -26 65 -30 88
-6 37 -4 42 17 50 12 6 36 24 52 41 16 16 34 30 39 30 6 0 32 14 58 31 31 20
46 35 42 45 -7 18 17 18 42 1z m-1383 -26 l4 -30 -22 22 c-21 20 -21 23 -6 29
9 4 18 7 18 7 1 1 4 -12 6 -28z m538 -93 c-1 -58 -2 -61 -15 -44 -17 22 -20
76 -5 76 6 0 10 7 10 15 0 8 2 15 5 15 3 0 5 -28 5 -62z m-493 -130 c-3 -7 -5
-2 -5 12 0 14 2 19 5 13 2 -7 2 -19 0 -25z m468 -5 c-2 -16 -8 -41 -14 -58
l-9 -30 -1 28 c-1 15 -5 27 -11 27 -10 0 -3 27 13 48 16 20 26 14 22 -15z
m-34 -222 c-6 -11 -11 -40 -11 -65 0 -25 -4 -55 -9 -68 -6 -13 -12 -39 -15
-59 -7 -43 -29 -75 -44 -65 -8 5 -4 15 13 32 22 22 25 33 25 104 0 47 4 80 10
80 6 0 10 24 10 54 0 30 5 58 10 61 6 3 11 16 12 28 1 12 3 -1 5 -30 2 -29 -1
-61 -6 -72z m-575 -217 c0 -20 -28 -54 -46 -54 -5 0 -10 15 -10 34 0 25 5 36
18 39 27 7 37 2 38 -19z m71 -26 c-3 -7 -5 -2 -5 12 0 14 2 19 5 13 2 -7 2
-19 0 -25z m150 -106 c51 -5 99 -14 106 -20 7 -6 49 -13 91 -15 57 -3 81 -8
87 -20 13 -22 -14 -29 -64 -18 -23 5 -98 17 -167 27 -69 9 -132 23 -141 30 -9
8 -39 14 -73 14 -38 0 -55 4 -50 11 4 7 27 9 63 5 31 -3 98 -9 148 -14z m-152
-48 c16 -16 13 -48 -6 -68 -5 -6 -9 -18 -9 -28 0 -10 -8 -31 -18 -47 l-18 -30
-17 40 c-17 39 -23 129 -10 142 12 13 62 7 78 -9z m149 -25 c6 -5 6 -17 -1
-31 -24 -52 -33 -80 -33 -106 0 -32 -31 -102 -52 -120 -13 -10 -21 -7 -47 20
-17 18 -31 42 -31 56 0 29 32 125 43 130 4 2 7 12 7 22 0 44 10 51 59 44 25
-3 50 -10 55 -15z m2156 -292 c0 -9 4 -25 9 -35 25 -50 33 -94 21 -117 -11
-20 -9 -28 14 -58 14 -18 26 -38 26 -42 0 -5 18 -30 40 -56 22 -26 40 -52 40
-57 0 -6 4 -12 8 -14 5 -1 28 -30 52 -63 25 -33 53 -67 62 -76 10 -9 18 -23
18 -32 0 -9 6 -20 14 -24 7 -4 26 -28 41 -53 15 -25 31 -47 35 -50 3 -3 10
-12 13 -20 4 -8 18 -33 32 -55 14 -22 31 -51 38 -65 6 -14 14 -27 17 -30 3 -3
14 -21 24 -40 10 -19 27 -44 36 -55 34 -39 170 -346 170 -385 0 -8 7 -28 15
-44 8 -15 15 -38 15 -51 0 -12 11 -67 25 -123 14 -56 25 -113 25 -127 0 -15 5
-35 11 -46 5 -11 11 -38 11 -60 0 -26 6 -42 17 -48 23 -12 154 -24 421 -40 80
-4 155 -13 168 -20 29 -15 30 3 2 39 -24 30 -26 87 -4 118 12 18 19 20 30 11
25 -21 41 -64 30 -81 -7 -12 -2 -31 23 -77 26 -49 31 -67 25 -96 -6 -32 -9
-35 -40 -35 -18 0 -36 4 -39 10 -13 21 -97 32 -260 35 -103 2 -205 9 -260 20
-49 9 -112 20 -138 24 -27 5 -53 13 -59 19 -5 5 -16 57 -24 113 -8 57 -21 147
-29 199 -8 53 -15 111 -15 130 -1 35 -15 100 -45 200 -9 30 -18 66 -21 80 -3
14 -9 34 -14 45 -8 19 -53 136 -70 180 -4 11 -12 32 -18 47 -6 15 -41 68 -77
117 -36 50 -65 95 -65 99 0 5 -8 17 -17 28 -10 10 -35 44 -56 74 -56 82 -172
240 -205 280 -42 50 -82 127 -82 156 0 14 -5 34 -11 46 -14 26 -31 147 -23
160 9 14 43 -30 44 -55z m-1345 -459 c22 -29 47 -61 55 -72 16 -20 104 -117
182 -201 l48 -50 -23 -17 c-20 -15 -24 -16 -47 -1 -31 19 -176 170 -210 218
-14 20 -35 48 -47 63 -30 35 -32 112 -3 112 3 0 24 -24 45 -52z m797 25 c23
-20 23 -34 0 -61 -21 -24 -61 -36 -81 -23 -18 11 -9 49 19 79 25 26 37 27 62
5z m-847 -135 c42 -63 104 -137 159 -190 48 -45 49 -48 47 -99 -1 -29 -8 -66
-16 -83 -23 -45 -19 -85 10 -108 14 -11 23 -23 20 -28 -4 -6 -222 -7 -266 -1
-4 1 -18 18 -32 40 -20 30 -31 38 -49 35 -34 -6 -88 47 -88 86 0 17 4 38 9 48
5 9 21 44 36 77 15 33 37 83 51 112 13 28 24 54 24 57 0 6 60 96 64 96 2 0 16
-19 31 -42z m630 -28 c15 -17 16 -22 4 -37 -27 -36 -55 -53 -88 -53 -32 0 -33
1 -27 33 6 33 50 77 77 77 9 0 24 -9 34 -20z m2343 -1273 c8 -10 20 -23 28
-30 58 -48 70 -77 29 -69 -14 2 -25 7 -25 11 0 3 -25 33 -55 66 -30 33 -55 69
-55 79 0 17 4 16 32 -10 18 -16 39 -37 46 -47z"/>
<path d="M3690 8299 c0 -5 5 -7 10 -4 6 3 10 8 10 11 0 2 -4 4 -10 4 -5 0 -10
-5 -10 -11z"/>
<path d="M5093 6563 c20 -2 54 -2 75 0 20 2 3 4 -38 4 -41 0 -58 -2 -37 -4z"/>
<path d="M5265 6540 c3 -5 17 -10 31 -10 13 0 24 5 24 10 0 6 -14 10 -31 10
-17 0 -28 -4 -24 -10z"/>
<path d="M3784 6515 c-10 -8 -32 -15 -49 -16 -29 -2 -29 -2 -3 -6 34 -5 110
15 103 27 -9 14 -28 12 -51 -5z"/>
<path d="M4905 6520 c-4 -6 6 -10 22 -10 22 0 25 2 13 10 -19 12 -27 12 -35 0z"/>
<path d="M5065 6510 c28 -12 73 -12 80 0 4 6 -14 10 -47 9 -39 0 -48 -3 -33
-9z"/>
<path d="M5438 6513 c12 -2 30 -2 40 0 9 3 -1 5 -23 4 -22 0 -30 -2 -17 -4z"/>
<path d="M5163 6493 c9 -2 23 -2 30 0 6 3 -1 5 -18 5 -16 0 -22 -2 -12 -5z"/>
<path d="M3890 6420 c0 -6 39 -10 98 -10 66 0 92 3 82 10 -20 13 -180 13 -180
0z"/>
<path d="M5038 6423 c-21 -2 -38 -9 -38 -15 0 -6 9 -8 21 -5 11 3 27 3 35 0
21 -8 -14 -31 -63 -41 -36 -7 -38 -10 -41 -49 -1 -25 2 -44 10 -49 6 -4 51 -7
100 -6 96 2 108 -5 108 -65 1 -15 7 -39 15 -53 8 -14 14 -35 15 -47 0 -26 33
-63 55 -63 12 0 15 22 17 113 l3 112 369 3 c362 2 368 3 363 22 -3 11 -1 23 4
26 18 11 9 24 -17 24 -14 0 -23 4 -20 9 9 14 -86 35 -304 68 -109 16 -533 27
-632 16z"/>
<path d="M4370 6370 c0 -5 5 -10 11 -10 5 0 7 5 4 10 -3 6 -8 10 -11 10 -2 0
-4 -4 -4 -10z"/>
<path d="M6712 6333 c-49 -50 -182 -227 -182 -244 0 -20 19 -7 56 41 21 27 47
52 56 55 10 4 50 37 89 76 58 56 78 69 104 69 48 0 75 -43 75 -119 0 -33 5
-63 10 -66 18 -11 12 142 -6 170 -22 34 -79 65 -120 65 -27 0 -43 -9 -82 -47z"/>
<path d="M4417 6281 c3 -12 10 -21 15 -21 13 0 6 32 -9 37 -7 3 -9 -3 -6 -16z"/>
<path d="M6500 6050 c0 -5 5 -10 11 -10 5 0 7 5 4 10 -3 6 -8 10 -11 10 -2 0
-4 -4 -4 -10z"/>
<path d="M5900 6014 c-126 -55 -226 -74 -401 -74 -122 0 -163 4 -222 21 -39
11 -88 25 -107 29 -19 5 -44 11 -55 14 -11 3 -29 -1 -39 -9 -24 -18 -8 -41 35
-50 17 -4 42 -13 57 -21 15 -8 42 -14 60 -14 38 0 112 -21 112 -32 0 -10 -32
-10 -54 -2 -9 3 -13 10 -10 15 6 11 -66 12 -83 1 -24 -15 9 -40 67 -53 30 -6
108 -13 172 -16 112 -4 116 -4 111 15 -6 23 0 26 107 42 102 15 182 40 198 62
7 9 28 20 46 23 22 5 37 15 45 31 18 40 15 42 -39 18z"/>
<path d="M6520 6017 c0 -7 9 -18 20 -25 24 -14 28 2 6 24 -18 17 -26 18 -26 1z"/>
<path d="M3706 5932 c-3 -5 11 -24 30 -42 20 -18 40 -43 44 -56 5 -12 30 -37
57 -55 l48 -34 150 0 c124 0 156 3 188 18 20 10 37 24 37 31 0 8 6 19 14 25
16 13 10 51 -8 51 -7 0 -17 -5 -23 -11 -6 -6 -49 -18 -95 -25 -66 -12 -99 -12
-163 -3 -106 15 -190 44 -236 80 -21 16 -40 26 -43 21z"/>
<path d="M6524 5814 c-44 -47 -78 -87 -75 -89 12 -13 34 0 100 61 50 46 71 73
71 90 0 13 -3 23 -7 23 -5 -1 -44 -39 -89 -85z"/>
<path d="M5600 5830 c0 -11 21 -11 65 0 27 7 25 8 -17 9 -27 0 -48 -3 -48 -9z"/>
<path d="M3750 5760 c0 -5 7 -10 16 -10 8 0 22 -7 30 -15 9 -8 26 -15 39 -15
13 0 27 -4 30 -10 3 -5 37 -10 76 -10 39 0 69 4 69 10 0 6 -32 10 -76 10 -46
0 -73 4 -69 10 3 5 -7 12 -22 15 -15 4 -38 11 -51 16 -30 12 -42 11 -42 -1z"/>
<path d="M4268 5733 c7 -3 16 -2 19 1 4 3 -2 6 -13 5 -11 0 -14 -3 -6 -6z"/>
<path d="M5760 4950 c0 -5 6 -10 14 -10 8 0 18 5 21 10 3 6 -3 10 -14 10 -12
0 -21 -4 -21 -10z"/>
<path d="M4640 1909 c0 -5 5 -7 10 -4 6 3 10 8 10 11 0 2 -4 4 -10 4 -5 0 -10
-5 -10 -11z"/>
<path d="M4640 1880 c0 -5 5 -10 10 -10 6 0 10 5 10 10 0 6 -4 10 -10 10 -5 0
-10 -4 -10 -10z"/>
<path d="M10198 9939 c-26 -15 -25 -95 1 -109 12 -6 129 -10 310 -10 l291 0 0
65 0 65 -292 0 c-181 0 -300 -5 -310 -11z"/>
<path d="M4320 4466 c0 -8 100 -36 127 -35 27 0 26 1 -12 19 -35 16 -115 27
-115 16z"/>
<path d="M4485 4410 c3 -5 10 -10 16 -10 5 0 9 5 9 10 0 6 -7 10 -16 10 -8 0
-12 -4 -9 -10z"/>
<path d="M4146 4267 c-16 -79 -14 -107 8 -107 7 0 16 15 21 33 9 28 15 32 47
35 53 4 88 -23 81 -64 -4 -23 -1 -33 13 -38 21 -8 28 -1 43 43 17 53 14 89 -9
96 -11 3 -24 3 -30 0 -6 -4 -25 -2 -43 3 -17 6 -53 13 -79 16 -44 5 -48 4 -52
-17z"/>
<path d="M3728 4263 c6 -2 18 -2 25 0 6 3 1 5 -13 5 -14 0 -19 -2 -12 -5z"/>
<path d="M4126 4122 c-2 -4 -6 -29 -7 -57 -3 -49 -3 -49 31 -56 132 -26 163
-30 172 -21 5 5 8 33 6 63 l-3 53 -65 12 c-76 15 -127 17 -134 6z m130 -42 c8
0 14 -11 14 -25 0 -24 -3 -26 -42 -24 -57 3 -68 8 -68 29 0 23 17 30 54 25 16
-3 35 -5 42 -5z"/>
<path d="M4120 3982 c-15 -5 -30 -21 -30 -33 0 -3 18 -13 39 -21 34 -14 40
-21 43 -49 4 -42 21 -44 28 -4 3 18 12 31 23 33 14 3 17 -4 17 -42 0 -34 4
-46 15 -46 19 0 32 26 36 71 4 47 -14 69 -58 69 -18 0 -48 6 -66 13 -18 8 -39
12 -47 9z"/>
<path d="M3572 3960 c0 -14 2 -19 5 -12 2 6 2 18 0 25 -3 6 -5 1 -5 -13z"/>
<path d="M4056 3812 c-7 -12 43 -42 69 -42 10 0 15 -10 15 -34 0 -40 18 -56
35 -32 11 15 13 14 18 -6 4 -12 4 -24 2 -27 -3 -2 -37 2 -75 9 -86 16 -94 11
-95 -63 0 -46 3 -52 22 -55 17 -3 23 3 28 28 8 35 21 30 27 -10 1 -14 11 -26
20 -28 12 -2 19 6 24 33 8 43 19 35 27 -18 7 -47 -3 -53 -77 -37 -80 16 -92
10 -100 -54 -7 -67 0 -88 28 -84 15 2 22 11 24 33 5 45 22 55 22 13 0 -24 5
-38 16 -42 23 -9 32 0 40 39 8 47 24 45 24 -3 0 -38 14 -62 35 -62 6 0 19 25
30 55 17 50 17 56 3 72 -14 15 -14 20 -2 31 13 12 18 46 18 112 0 14 2 27 5
30 13 11 39 79 37 95 -1 10 -19 23 -42 31 -55 19 -170 29 -178 16z"/>
</g>
</svg>
